#!OML:ASF Y:\EmotionMaleHayes\Project 1\Capture day 1\Session 1\Male1.ASF
:FULLY-SPECIFIED
:DEGREES
2450
root -30.1379 17.2058 3.2752 205.455 96.8049 208.657
lowerback 5.42878 1.54953 -12.078
upperback 4.24694 1.82191 -3.28762
thorax 1.17949 0.784164 3.23488
lowerneck -26.3474 0.433516 3.14723
upperneck 25.6308 -0.265277 -0.957669
head 12.9536 0.116542 -0.934613
rclavicle 8.34896e-015 -3.02153e-014
rhumerus 29.6118 20.5336 -40.2053
rradius 41.7657
rwrist -4.39894
rhand -6.36096 -31.4822
rfingers 7.12502
rthumb 19.4853 -60.5258
lclavicle 8.34896e-015 -3.02153e-014
lhumerus 30.402 -18.8993 35.8537
lradius 40.8338
lwrist 3.86851
lhand -17.8679 -27.2747
lfingers 7.12502
lthumb 8.39777 2.53838
rfemur -0.568557 -1.2155 13.3071
rtibia 17.8225
rfoot -17.5887 0.425011
rtoes 7.50888
lfemur 9.23272 1.47793 -17.873
ltibia 6.75929
lfoot -17.3654 22.1163
ltoes 2.47809
2451
root -30.1331 17.1955 3.29023 208.244 97.5315 211.469
lowerback 5.23461 1.54002 -12.4823
upperback 4.14741 1.82353 -3.5291
thorax 1.18566 0.785693 3.20672
lowerneck -25.4927 0.426638 2.5027
upperneck 24.7263 -0.276505 -0.0114176
head 12.4277 0.168748 -0.459246
rclavicle -7.35503e-015 -1.90833e-014
rhumerus 29.3953 20.7133 -40.5575
rradius 41.7788
rwrist -4.37657
rhand -6.44924 -31.4876
rfingers 7.12502
rthumb 19.4005 -60.5398
lclavicle -7.35503e-015 -1.90833e-014
lhumerus 30.1323 -19.1298 36.0192
lradius 40.9004
lwrist 3.7863
lhand -17.7425 -27.1919
lfingers 7.12502
lthumb 8.51881 2.61624
rfemur -0.322855 -1.48862 12.7016
rtibia 17.3694
rfoot -17.0491 0.774379
rtoes 12.4308
lfemur 9.35024 1.95899 -18.4996
ltibia 6.68405
lfoot -17.2515 22.1438
ltoes 2.07031
2452
root -30.1276 17.1819 3.30402 207.454 98.0286 210.65
lowerback 5.07385 1.54015 -12.2885
upperback 4.02043 1.84149 -3.64934
thorax 1.14421 0.805366 2.97726
lowerneck -26.2448 0.678506 3.43119
upperneck 25.4599 0.0047812 -1.08238
head 12.8714 0.242201 -0.979503
rclavicle -1.17283e-014 -2.22639e-014
rhumerus 29.0726 20.6766 -41.0667
rradius 41.7882
rwrist -4.08372
rhand -6.26773 -31.3704
rfingers 7.12502
rthumb 19.575 -60.4049
lclavicle -1.17283e-014 -2.22639e-014
lhumerus 29.8867 -19.4079 36.1446
lradius 40.9716
lwrist 3.7313
lhand -17.7651 -27.2559
lfingers 7.12502
lthumb 8.497 2.55314
rfemur 0.0503218 -1.43948 12.7614
rtibia 16.4502
rfoot -16.9182 0.249807
rtoes 13.5848
lfemur 9.49395 2.32667 -18.5321
ltibia 6.54409
lfoot -17.2834 22.2399
ltoes 1.78624
2453
root -30.118 17.1649 3.3181 204.078 98.4095 207.204
lowerback 4.71833 1.55136 -11.6707
upperback 3.98645 1.91911 -3.60553
thorax 1.30306 0.844382 2.69186
lowerneck -25.8377 0.747016 2.95889
upperneck 24.8603 0.121563 -0.486303
head 12.5541 0.322131 -0.646424
rclavicle 1.0138e-014 4.77083e-014
rhumerus 28.9434 20.6536 -41.3167
rradius 41.8106
rwrist -3.96891
rhand -6.02492 -31.4149
rfingers 7.12502
rthumb 19.8084 -60.4255
lclavicle 1.0138e-014 4.77083e-014
lhumerus 29.7216 -19.6376 36.3075
lradius 40.9322
lwrist 3.60946
lhand -17.8597 -27.3145
lfingers 7.12502
lthumb 8.40575 2.49825
rfemur 0.489474 -1.14271 13.2848
rtibia 15.2225
rfoot -17.0394 -1.07705
rtoes 10.3088
lfemur 9.72621 2.53237 -18.1064
ltibia 6.28376
lfoot -17.6036 22.2852
ltoes 2.77655
2454
root -30.1172 17.148 3.33931 203.84 98.6954 207.065
lowerback 4.73525 1.49936 -11.5066
upperback 3.90626 1.84096 -3.62023
thorax 1.2215 0.813909 2.58914
lowerneck -25.7691 0.804354 3.00092
upperneck 24.7655 0.260283 -0.728737
head 12.5056 0.350926 -0.721492
rclavicle -2.5842e-015 -5.56597e-014
rhumerus 28.836 20.9011 -41.5489
rradius 41.7476
rwrist -3.97122
rhand -6.17336 -31.5571
rfingers 7.12502
rthumb 19.6657 -60.5824
lclavicle -2.5842e-015 -5.56597e-014
lhumerus 29.3873 -19.9104 36.5119
lradius 40.9437
lwrist 3.49691
lhand -17.7322 -27.3539
lfingers 7.12502
lthumb 8.52875 2.45385
rfemur 1.19025 -0.902085 13.309
rtibia 13.9444
rfoot -17.0839 -2.70268
rtoes 5.74528
lfemur 9.95539 2.802 -18.0207
ltibia 6.17619
lfoot -17.7495 21.9994
ltoes 3.60841
2455
root -30.1122 17.1303 3.35734 204.954 98.9423 208.226
lowerback 4.74833 1.42701 -11.4458
upperback 3.75942 1.72888 -3.70641
thorax 1.07666 0.771073 2.46928
lowerneck -25.5463 0.924589 3.09552
upperneck 24.5213 0.44329 -0.878828
head 12.3701 0.416374 -0.76129
rclavicle 3.18055e-015 -1.59028e-014
rhumerus 28.4623 21.0927 -41.9684
rradius 41.7427
rwrist -3.74462
rhand -6.32607 -31.6434
rfingers 7.12502
rthumb 19.5189 -60.6836
lclavicle 3.18055e-015 -1.59028e-014
lhumerus 29.0284 -20.1671 36.857
lradius 40.9765
lwrist 3.27023
lhand -17.5944 -27.4745
lfingers 7.12502
lthumb 8.66176 2.32776
rfemur 1.76303 -0.669918 13.0742
rtibia 12.9687
rfoot -16.4627 -2.00767
rtoes 9.07914
lfemur 10.0216 3.02166 -18.1604
ltibia 6.22073
lfoot -17.8806 21.7764
ltoes 4.01975
2456
root -30.1065 17.1142 3.37608 205.133 99.1841 208.425
lowerback 4.52466 1.28697 -11.0858
upperback 3.74629 1.58915 -3.8511
thorax 1.21412 0.704506 2.13373
lowerneck -25.5324 1.12799 3.29996
upperneck 24.3192 0.680686 -0.999931
head 12.2947 0.520341 -0.798807
rclavicle -8.74653e-015 7.95139e-015
rhumerus 28.3448 21.0927 -42.5146
rradius 41.7213
rwrist -3.52758
rhand -6.13598 -31.545
rfingers 7.12502
rthumb 19.7016 -60.5666
lclavicle -8.74653e-015 7.95139e-015
lhumerus 28.7251 -20.1863 37.0519
lradius 40.9553
lwrist 2.9707
lhand -17.6405 -27.4709
lfingers 7.12502
lthumb 8.61732 2.33328
rfemur 2.04052 -0.385192 13.0192
rtibia 12.5159
rfoot -16.212 -1.29507
rtoes 11.6914
lfemur 10.1143 3.15681 -18.2007
ltibia 6.21804
lfoot -18.0303 21.6988
ltoes 4.39445
2457
root -30.1021 17.1013 3.39444 205.126 99.5463 208.494
lowerback 4.57308 1.26199 -10.9801
upperback 3.5908 1.52901 -3.81492
thorax 1.02962 0.685888 2.11359
lowerneck -25.4334 1.25073 3.2088
upperneck 24.2161 0.912003 -1.06194
head 12.2405 0.604146 -0.766221
rclavicle 2.38542e-014 1.59028e-014
rhumerus 28.1729 21.3596 -42.7063
rradius 41.6862
rwrist -3.59365
rhand -6.14573 -31.3833
rfingers 7.12502
rthumb 19.6923 -60.4059
lclavicle 2.38542e-014 1.59028e-014
lhumerus 28.182 -20.3881 37.6275
lradius 40.9292
lwrist 2.73231
lhand -17.6809 -27.4753
lfingers 7.12502
lthumb 8.57827 2.33043
rfemur 2.02635 0.214748 13.0112
rtibia 12.5913
rfoot -16.2778 -1.14818
rtoes 12.9046
lfemur 10.292 3.58224 -18.1873
ltibia 6.172
lfoot -17.9719 21.5237
ltoes 3.86185
2458
root -30.0977 17.0923 3.41083 205.461 99.823 208.84
lowerback 4.4768 1.23596 -10.7068
upperback 3.53167 1.51277 -3.94362
thorax 1.02987 0.686031 1.83288
lowerneck -25.3939 1.37648 3.26639
upperneck 23.9389 1.02896 -0.953488
head 12.1272 0.672421 -0.7136
rclavicle -1.55052e-014 3.33958e-014
rhumerus 27.8447 21.1991 -43.3924
rradius 41.5118
rwrist -3.29426
rhand -6.27348 -31.2141
rfingers 7.12502
rthumb 19.5694 -60.2492
lclavicle -1.55052e-014 3.33958e-014
lhumerus 27.9731 -20.604 37.9554
lradius 40.9288
lwrist 2.71534
lhand -17.6722 -27.511
lfingers 7.12502
lthumb 8.58672 2.29439
rfemur 1.80589 0.795837 13.0262
rtibia 12.9484
rfoot -16.4586 -1.55629
rtoes 11.9256
lfemur 10.2706 4.28479 -18.0708
ltibia 6.35894
lfoot -17.8049 21.094
ltoes 3.02932
2459
root -30.0907 17.0876 3.42522 205.826 99.9071 209.234
lowerback 4.35349 1.12889 -10.337
upperback 3.52886 1.40022 -4.03841
thorax 1.11458 0.634245 1.53962
lowerneck -25.4656 1.50271 3.48135
upperneck 23.7159 1.1479 -1.07798
head 12.0592 0.723787 -0.775079
rclavicle -1.83876e-014 1.43125e-014
rhumerus 27.5381 21.0698 -44.0511
rradius 41.4102
rwrist -3.03645
rhand -6.27252 -31.1557
rfingers 7.12502
rthumb 19.5704 -60.1907
lclavicle -1.83876e-014 1.43125e-014
lhumerus 27.6897 -20.6951 38.3847
lradius 40.971
lwrist 2.89639
lhand -17.7384 -27.3804
lfingers 7.12502
lthumb 8.52283 2.42764
rfemur 1.69763 0.696742 12.946
rtibia 13.2491
rfoot -16.5542 -1.47981
rtoes 11.1675
lfemur 10.2985 4.37277 -18.1299
ltibia 6.44764
lfoot -17.8066 21.0803
ltoes 2.89428
2460
root -30.0826 17.0883 3.43937 206.072 99.9507 209.589
lowerback 4.31702 1.00758 -10.0571
upperback 3.50884 1.24592 -4.00344
thorax 1.13083 0.560006 1.42939
lowerneck -25.3774 1.60103 3.51069
upperneck 23.5501 1.32967 -1.26511
head 11.9841 0.779226 -0.818855
rclavicle 6.75868e-015 -4.29375e-014
rhumerus 27.2644 21.3843 -44.1723
rradius 41.5498
rwrist -3.3206
rhand -6.48042 -31.5015
rfingers 7.12502
rthumb 19.3705 -60.5567
lclavicle 6.75868e-015 -4.29375e-014
lhumerus 27.14 -20.7864 39.0599
lradius 40.9833
lwrist 2.97486
lhand -17.9593 -27.2004
lfingers 7.12502
lthumb 8.30958 2.61621
rfemur 1.84468 0.436971 12.8134
rtibia 13.2506
rfoot -16.5116 -1.08223
rtoes 12.6274
lfemur 10.5604 3.95627 -18.37
ltibia 6.19687
lfoot -17.8106 21.4838
ltoes 2.73965
